/* XPM */
static char *AppIcon_xpm[] = {
"32 32 8 1",
"0	c #000000",
"1	c #FF0000",
"2	c #FFFF00",
"3	c #0000FF",
"4	c #00FFFF",
"5	c #C0C0C0",
"6	c #FFFFFF",
" 	c None",
"00000000000000000000000000000000",
"06666666666666666666666666666660",
"06              44            60",
"06           223344422222113  60",
"06   12222222333444 33333113  60",
"06   11223333   444      233  60",
"06   11333      212      233  60",
"06   23         212      233  60",
"06   23         212     22 3  60",
"06   23         212     2 33  60",
"06   23         212    3333   60",
"06   33         212   33533   60",
"06  333         212   35553   60",
"06  353         212  355553   60",
"06  3533        212  3555553  60",
"06  35533       212  3555553  60",
"06 335553       212  35555533 60",
"0633355533      212  33333333 60",
"0633555553      212           60",
"063333333333    112           60",
"06           2221 2           60",
"06         22211112222        60",
"06     22222111  11112222     60",
"06    2211          11122222  60",
"06    211             111122  60",
"06    2111              1111  60",
"06     1 1                    60",
"06                            60",
"06                            60",
"06                            60",
"06666666666666666666666666666660",
"00000000000000000000000000000000"
};
